<?xml version="1.0" encoding="UTF-8"?>
<!DOCTYPE svg PUBLIC "-//W3C//DTD SVG 1.1//EN" "http://www.w3.org/Graphics/SVG/1.1/DTD/svg11.dtd">
<!-- Creator: CorelDRAW Home & Student X6 -->
<svg xmlns="http://www.w3.org/2000/svg" xml:space="preserve" width="500mm" height="500mm" version="1.1" style="shape-rendering:geometricPrecision; text-rendering:geometricPrecision; image-rendering:optimizeQuality; fill-rule:evenodd; clip-rule:evenodd"
viewBox="0 0 50000 50000"
 xmlns:xlink="http://www.w3.org/1999/xlink">
 <defs>
  <style type="text/css">
   <![CDATA[
    .fil0 {fill:none}
    .fil4 {fill:#56BCD2}
    .fil3 {fill:#5F7E8D}
    .fil1 {fill:#FE0D6E}
    .fil2 {fill:white}
   ]]>
  </style>
 </defs>
 <g id="Warstwa_x0020_1">
  <metadata id="CorelCorpID_0Corel-Layer"/>
  <rect class="fil0" x="17021" y="18509" width="17939" height="11959"/>
  <g id="_201282200">
   <g>
    <rect class="fil1" x="19880" y="26211" width="13123" height="1667"/>
    <path class="fil2" d="M21109 26799c-218,-7 -431,1 -431,1 0,0 -163,12 -226,168 -63,155 -36,327 -10,384 26,56 110,158 219,171 109,13 443,1 443,1l0 -139c0,0 -370,7 -403,-7 -33,-13 -119,-9 -132,-165 -13,-155 25,-265 143,-272 117,-7 399,3 399,3l0 -146z"/>
    <rect class="fil2" x="21509" y="26488" width="146" height="1038"/>
    <rect class="fil2" x="22104" y="26801" width="136" height="724"/>
    <rect class="fil2" x="22091" y="26530" width="149" height="169"/>
    <path class="fil2" d="M22680 27527l2 -652c0,0 5,-67 65,-69 59,-2 404,-2 404,-2 0,0 158,10 228,100 70,90 66,131 66,157 0,26 3,466 3,466l-146 -2 -2 -449c0,0 -22,-116 -153,-129 -131,-13 -315,-1 -315,-1l-2 580 -150 2z"/>
    <path class="fil2" d="M25581 26800c297,0 437,-10 514,9 77,20 154,87 159,167 5,80 -1,461 -1,461 0,0 -19,83 -60,88 -42,5 -522,-2 -522,-2 0,0 -129,-39 -144,-181 -15,-143 48,-236 148,-241 101,-5 441,-4 441,-4 7,-82 -10,-154 -72,-154 -145,0 -393,0 -459,-1 -3,0 -15,0 -15,0 -1,-54 -1,-82 0,-141 0,0 10,0 12,0zm531 412l-341 -1c-61,0 -99,13 -106,41l-5 23 0 29 5 31 15 21c17,24 31,32 91,32l282 3c61,1 61,-9 63,-38l13 -158 -13 158"/>
    <path class="fil2" d="M27902 26803l2 -170 151 0 1 171 196 0 2 144 -194 -1 -1 390c0,0 8,57 62,60 54,2 132,1 132,1l2 134 -193 2c0,0 -160,-13 -159,-208 2,-195 4,-378 4,-378l-97 -2 0 -141c0,0 98,0 93,0z"/>
    <path class="fil2" d="M28630 27522l5 -589c0,0 12,-131 141,-132 129,-2 351,0 351,0l1 136 -290 0c0,0 -53,12 -56,68 -3,56 -2,514 -2,514l-149 2z"/>
    <path class="fil2" d="M32438 26939l0 -136 -486 5c0,0 -162,30 -154,208 8,179 122,207 225,208 103,2 241,2 241,2 0,0 60,28 62,74 2,46 -12,73 -68,81 -56,8 -448,3 -448,3l-2 142 483 -2c0,0 157,-10 179,-202 21,-192 -155,-218 -192,-220 -36,-2 -260,-2 -260,-2 0,0 -73,-8 -79,-73 -7,-65 36,-83 63,-86 26,-3 437,-5 437,-5z"/>
    <rect class="fil2" x="23893" y="26804" width="136" height="724"/>
    <rect class="fil2" x="23880" y="26533" width="149" height="169"/>
    <rect class="fil2" x="29499" y="26803" width="136" height="724"/>
    <rect class="fil2" x="29486" y="26531" width="149" height="169"/>
    <path class="fil2" d="M25131 26801c-218,-7 -431,1 -431,1 0,0 -163,12 -226,168 -63,155 -36,327 -10,384 26,56 110,158 219,171 109,13 443,1 443,1l0 -139c0,0 -370,7 -403,-7 -33,-13 -119,-9 -132,-165 -13,-155 25,-265 143,-272 117,-7 399,3 399,3l0 -146z"/>
    <path class="fil2" d="M30126 26797c297,0 437,-10 514,9 77,20 154,87 159,167 5,80 -1,461 -1,461 0,0 -19,83 -60,88 -42,5 -522,-2 -522,-2 0,0 -129,-39 -144,-181 -15,-143 48,-236 148,-241 101,-5 441,-4 441,-4 7,-82 -10,-154 -72,-154 -145,0 -393,0 -459,-1 -3,0 -15,0 -15,0 -1,-54 -1,-82 0,-141 0,0 10,0 12,0zm531 412l-341 -1c-61,0 -99,13 -106,41l-5 23 0 29 5 31 15 21c17,24 31,32 91,32l282 3c61,1 61,-9 63,-38l13 -158 -13 158"/>
    <rect class="fil2" x="26694" y="26486" width="146" height="1038"/>
    <rect class="fil2" x="31241" y="26487" width="146" height="1038"/>
   </g>
   <g>
    <path class="fil3" d="M21550 24877c-594,0 -808,10 -974,-9 -166,-19 -368,-198 -373,-358 -38,-1190 35,-1115 1168,-1094 93,2 319,162 315,421 -4,259 -145,426 -347,437 -202,11 -853,3 -853,3 -15,164 8,311 162,315 291,7 751,-4 883,-2 30,0 82,-3 82,3 0,66 0,212 -1,282 0,3 -40,1 -62,1zm-1062 -825l743 -3c83,0 167,-37 164,-197 -3,-138 -124,-162 -139,-162l-609 4c-62,0 -160,61 -159,154l1 206"/>
    <path class="fil4" d="M25967 22488c-1112,-1156 -2674,-434 -2821,646 -107,792 249,1438 779,1727 692,377 1529,168 1999,-325 26,-27 37,-45 43,-39 430,411 495,551 495,551 0,0 -373,790 -1850,820 -589,12 -1106,-244 -1530,-597 -943,-785 -654,-2044 -1857,-2521 -511,-203 -850,122 -1298,272 -448,150 -969,-295 -947,-730 21,-435 586,-845 1036,-605 450,240 478,620 1033,770 555,150 1155,50 1634,-385 480,-435 825,-800 1559,-934 735,-135 1503,42 2230,649 11,9 35,22 26,33 -342,426 -532,667 -532,667z"/>
    <path class="fil3" d="M27241 24926l0 -1201c0,0 5,-423 402,-423 397,0 1275,11 1275,11 0,0 339,0 333,-392 -5,-392 -222,-402 -318,-407 -95,-5 -1693,-11 -1693,-11l-11 -508c0,0 1598,-11 1672,-5 74,5 916,81 863,926 -53,836 -645,782 -609,847l667 1169 -556 0 -661 -1127 -762 -11c0,0 -85,-26 -90,74 -5,101 -5,1058 -5,1058l-508 0z"/>
    <path class="fil3" d="M30681 24931l5 -2111c0,0 101,-804 1005,-815 905,-11 1291,0 1291,0l0 503 -1286 -5c0,0 -487,37 -492,413 -5,376 -5,386 -5,386l1762 -11 11 487 -1773 -5 -11 1159 -508 0z"/>
   </g>
  </g>
 </g>
</svg>
